<?xml version="1.0" encoding="UTF-8"?>
<svg width="163px" height="225px" viewBox="0 0 163 225" version="1.1" xmlns="http://www.w3.org/2000/svg" xmlns:xlink="http://www.w3.org/1999/xlink">
    <!-- Generator: Sketch 53.2 (72643) - https://sketchapp.com -->
    <title>mascot 2</title>
    <desc>Created with Sketch.</desc>
    <defs>
        <path d="M0,60.1447871 C0,105.049116 36.5614258,148.152772 81.6624742,148.152772 L81.6624742,148.152772 C126.762471,148.152772 162.807029,134.362222 162.807029,89.4573646 L162.807029,89.4573646 C162.807029,44.5530354 126.762471,1.27612635 81.6624742,1.27612635 L81.6624742,1.27612635 C36.5614258,1.27612635 0,15.2399297 0,60.1447871" id="path-1"></path>
        <linearGradient x1="50.0000239%" y1="6.5920076e-05%" x2="50.0000239%" y2="99.9998887%" id="linearGradient-3">
            <stop stop-color="#FFDD00" stop-opacity="0.2" offset="0%"></stop>
            <stop stop-color="#FFC800" offset="100%"></stop>
        </linearGradient>
        <path d="M71.3277484,-10.6503646 C58.6137484,-10.623954 46.0638,-5.46332616 34.0938161,6.56563786 L34.0938161,6.56563786 C2.49863226,38.3174969 -1.97650645,94.7775124 29.9141806,126.826755 L29.9141806,126.826755 C61.8048677,158.875997 96.9949903,174.738193 128.591226,142.986334 L128.591226,142.986334 C160.18641,111.234475 165.149497,55.018493 133.258284,22.9692508 L133.258284,22.9692508 C113.515303,3.12856462 92.3137355,-10.6028256 71.5349161,-10.6503646 L71.5349161,-10.6503646 L71.3277484,-10.6503646 Z" id="path-4"></path>
        <linearGradient x1="75.9265313%" y1="19.5669416%" x2="23.9991027%" y2="80.3146216%" id="linearGradient-6">
            <stop stop-color="#B580FF" stop-opacity="0.2" offset="0%"></stop>
            <stop stop-color="#936BE4" offset="100%"></stop>
        </linearGradient>
        <path d="M8.32772258,74.9738011 C8.32772258,120.298587 22.0502194,156.521757 66.7327258,156.521757 L66.7327258,156.521757 C111.415758,156.521757 154.478781,120.298587 154.478781,74.9738011 L154.478781,74.9738011 C154.478781,29.6495436 140.583819,-7.09285912 95.9013129,-7.09285912 L95.9013129,-7.09285912 C51.2188065,-7.09285912 8.32772258,29.6495436 8.32772258,74.9738011" id="path-7"></path>
        <linearGradient x1="100.000266%" y1="49.9999747%" x2="0.000136316539%" y2="49.9999747%" id="linearGradient-9">
            <stop stop-color="#FF7C6E" stop-opacity="0.2" offset="0%"></stop>
            <stop stop-color="#FF3B72" offset="100%"></stop>
        </linearGradient>
        <path d="M17.9888903,38.2197777 C-4.56137097,77.4727704 -10.6996355,115.737479 27.9965645,138.189644 L27.9965645,138.189644 C66.6932903,160.641808 122.009181,150.910565 144.559442,111.658629 L144.559442,111.658629 C167.109703,72.4061642 173.357335,33.6042643 134.661135,11.1515714 L134.661135,11.1515714 C121.115835,3.29283844 105.514106,-0.557296309 89.9970323,-0.558352732 L89.9970323,-0.558352732 C61.1838903,-0.560465579 32.6457452,12.707683 17.9888903,38.2197777" id="path-10"></path>
        <linearGradient x1="88.9891775%" y1="70.8937494%" x2="11.137981%" y2="29.0689536%" id="linearGradient-12">
            <stop stop-color="#00E6EF" stop-opacity="0.2" offset="0%"></stop>
            <stop stop-color="#00C8E9" offset="100%"></stop>
        </linearGradient>
        <path d="M7.70043548,0.429436075 C8.21888065,0.322737321 8.74205806,0.267803309 9.26313226,0.267803309 C10.6013097,0.267803309 11.9221355,0.628043658 13.0904774,1.38549917 C16.6470323,3.69061483 17.4446806,8.80528829 14.8729613,12.8086044 C12.3012419,16.8124488 7.33342258,18.1884401 3.77686774,15.8833245 C1.16203226,14.1882933 0.038383871,10.9741253 0.649370968,7.7995733" id="path-13"></path>
        <linearGradient x1="13.44603%" y1="25.0537653%" x2="86.5531287%" y2="74.9481228%" id="linearGradient-15">
            <stop stop-color="#00E6EF" offset="0%"></stop>
            <stop stop-color="#00C8E9" offset="100%"></stop>
        </linearGradient>
        <path d="M0.649352198,7.79967104 C2.55833064,4.91637637 4.95270493,2.39922254 7.70092566,0.429315758 C9.55005571,0.0478847569 11.4672064,0.333164822 13.0904774,1.38549917 C16.6465065,3.69061483 17.4446806,8.80528829 14.8729613,12.8086044 C14.0321968,14.1175129 12.9569226,15.1839722 11.7154935,15.8558575 L8.43393548,8.63414771 L0.489525806,9.71328412 C0.473470944,9.0823829 0.52608021,8.44023523 0.649352198,7.79967104" id="path-16"></path>
        <linearGradient x1="15.2491278%" y1="18.9778987%" x2="96.2743446%" y2="70.493382%" id="linearGradient-18">
            <stop stop-color="#00E6EF" offset="0%"></stop>
            <stop stop-color="#00C8E9" offset="100%"></stop>
        </linearGradient>
        <path d="M3.18165484,1.95596776 C4.32002581,0.854118246 5.69816452,0.445282425 6.97692581,0.445282425 C8.17523871,0.445282425 9.28574194,0.803938139 10.0318613,1.28778001 C12.8591226,3.12067446 13.4932452,7.18579135 11.4489097,10.3677384 C9.40457419,13.5502136 5.45576774,14.6446681 2.62903226,12.8117737 C-0.197703226,10.9794075 -0.831825806,6.91429056 1.21250968,3.73181534 L5.18392581,6.30684716" id="path-19"></path>
        <linearGradient x1="-0.000507453593%" y1="49.9997201%" x2="99.9972167%" y2="49.9997201%" id="linearGradient-21">
            <stop stop-color="#4D4D79" offset="0%"></stop>
            <stop stop-color="#233D56" offset="100%"></stop>
        </linearGradient>
        <path d="M8.28776129,0.331188708 C8.61270968,0.289459987 8.93870968,0.267803309 9.26313226,0.267803309 C10.6013097,0.267803309 11.9221355,0.628043658 13.0904774,1.38549917 C16.6470323,3.69061483 17.4446806,8.80528829 14.8729613,12.8086044 C12.3012419,16.8124488 7.33342258,18.1884401 3.77686774,15.8833245 C1.41073871,14.3493978 0.266058065,11.5720609 0.522125806,8.7059845" id="path-22"></path>
        <linearGradient x1="13.4458971%" y1="25.0537653%" x2="86.5517611%" y2="74.9481228%" id="linearGradient-24">
            <stop stop-color="#00E6EF" offset="0%"></stop>
            <stop stop-color="#00C8E9" offset="100%"></stop>
        </linearGradient>
        <path d="M0.521879596,8.70571175 C2.54616082,5.39338731 5.19653457,2.51695975 8.28811808,0.330960225 C9.95136879,0.116629021 11.6384896,0.444204292 13.0904774,1.38549917 C16.6465065,3.69061483 17.4446806,8.80528829 14.8729613,12.8086044 C14.0321968,14.1175129 12.9569226,15.1839722 11.7154935,15.8558575 L8.43393548,8.63414771 L0.489525806,9.71328412 C0.481042917,9.37993554 0.491729244,9.04344725 0.521879596,8.70571175" id="path-25"></path>
        <linearGradient x1="15.2491529%" y1="18.9778987%" x2="96.2743697%" y2="70.493382%" id="linearGradient-27">
            <stop stop-color="#00E6EF" offset="0%"></stop>
            <stop stop-color="#00C8E9" offset="100%"></stop>
        </linearGradient>
        <path d="M3.18165484,1.95596776 C4.3195,0.854118246 5.69763871,0.445282425 6.97692581,0.445282425 C8.1747129,0.445282425 9.28574194,0.803938139 10.0318613,1.28778001 C12.8585968,3.12067446 13.4932452,7.18579135 11.4489097,10.3677384 C9.40457419,13.5502136 5.45576774,14.6446681 2.62903226,12.8117737 C-0.197703226,10.9794075 -0.831825806,6.91429056 1.21250968,3.73181534 L5.18392581,6.30684716" id="path-28"></path>
        <linearGradient x1="-0.00050745959%" y1="49.9997201%" x2="99.9983985%" y2="49.9997201%" id="linearGradient-30">
            <stop stop-color="#4D4D79" offset="0%"></stop>
            <stop stop-color="#233D56" offset="100%"></stop>
        </linearGradient>
        <path d="M36.7302097,22.2096824 C34.7768387,23.466298 33.2877548,25.3757831 32.3108065,27.4896861 L32.3108065,27.4896861 C31.6062258,29.0125203 31.1493,30.6890641 31.2781226,32.3629669 L31.2781226,32.3629669 C31.3075677,32.7459203 31.4064194,33.1167249 31.5452323,33.4743242 L31.5452323,33.4743242 C31.8354774,34.2212155 32.4364742,34.8133407 32.8045387,34.8931007 L32.8045387,34.8931007 C34.248929,35.2073866 34.8325742,33.6518033 35.4256839,32.7015505 L35.4256839,32.7015505 C36.5609,30.8829178 38.1020387,29.3114881 39.937629,28.2117515 L39.937629,28.2117515 C41.1916774,27.4595781 42.5698161,26.9324228 43.9789774,26.5473566 L43.9789774,26.5473566 C44.7766258,26.3292051 45.7488419,26.1548953 46.1242677,25.415399 L46.1242677,25.415399 C47.0176129,23.6543413 45.8271871,22.3512432 45.6478871,22.1346764 L45.6478871,22.1346764 C45.0889548,21.4601501 44.2366226,21.0962123 43.3842903,20.9039432 L43.3842903,20.9039432 C42.8195742,20.776116 42.2438161,20.7153717 41.6680581,20.7153717 L41.6680581,20.7153717 C39.935,20.7153717 38.1966839,21.2662964 36.7302097,22.2096824" id="path-31"></path>
        <linearGradient x1="0.00012211012%" y1="50.0000434%" x2="100.000229%" y2="50.0000434%" id="linearGradient-33">
            <stop stop-color="#4D4D79" offset="0%"></stop>
            <stop stop-color="#233D56" offset="100%"></stop>
        </linearGradient>
        <path d="M117.600294,30.6647664 C117.134955,31.407432 117.053981,32.3339152 117.134955,33.2075773 L117.134955,33.2075773 C117.35001,35.5280111 118.634029,37.6820582 120.428081,39.1610509 L120.428081,39.1610509 C122.221606,40.6389871 124.488884,41.4709204 126.791916,41.751929 L126.791916,41.751929 C128.451361,41.9537059 130.180213,41.8723613 131.725032,41.2321688 L131.725032,41.2321688 C132.078374,41.0858541 132.399116,40.8766823 132.694619,40.633705 L132.694619,40.633705 C133.311916,40.1255654 133.686816,39.3681098 133.648958,38.9914949 L133.648958,38.9914949 C133.499629,37.5151434 131.847019,37.4374962 130.763858,37.1644108 L130.763858,37.1644108 C128.691655,36.6425377 126.727242,35.6553101 125.1188,34.2418157 L125.1188,34.2418157 C124.019339,33.2762448 123.093919,32.1221024 122.293642,30.8945385 L122.293642,30.8945385 C121.840923,30.1999401 121.375584,29.3252216 120.559006,29.1958098 L120.559006,29.1958098 C120.382861,29.1672864 120.215129,29.1546093 120.056335,29.1546093 L120.056335,29.1546093 C118.464719,29.1546093 117.737003,30.4481996 117.600294,30.6647664" id="path-34"></path>
        <linearGradient x1="-0.000741053544%" y1="49.9997109%" x2="99.9994913%" y2="49.9997109%" id="linearGradient-36">
            <stop stop-color="#4D4D79" offset="0%"></stop>
            <stop stop-color="#233D56" offset="100%"></stop>
        </linearGradient>
        <path d="M103.359877,104.432165 C101.198813,107.084316 103.25051,112.363263 106.601474,115.12 L106.601474,115.12 C109.952965,117.876736 113.335477,117.068044 115.497594,114.416422 L115.497594,114.416422 C117.658658,111.764271 117.781171,108.273848 114.429681,105.516584 L114.429681,105.516584 C112.444235,103.883353 109.685329,102.873941 107.316045,102.873941 L107.316045,102.873941 C105.686571,102.873941 104.241129,103.351972 103.359877,104.432165" id="path-37"></path>
        <linearGradient x1="0.000286978919%" y1="50.0007838%" x2="100.000197%" y2="50.0007838%" id="linearGradient-39">
            <stop stop-color="#4D4D79" offset="0%"></stop>
            <stop stop-color="#233D56" offset="100%"></stop>
        </linearGradient>
        <path d="M115.497068,114.416422 C113.335477,117.068044 109.952965,117.877265 106.601474,115.12 C103.249984,112.363263 101.198813,107.084316 103.360403,104.432165 C105.521994,101.780543 111.07819,102.759319 114.429681,105.516584" id="path-40"></path>
    </defs>
    <g id="Page-1" stroke="none" stroke-width="1" fill="none" fill-rule="evenodd">
        <g id="mascot-2" transform="translate(0.000000, 11.000000)">
            <path d="M82.7781303,186.149941 C117.194266,186.149941 145.094082,192.3353 145.094082,199.964261 C145.094082,207.594278 117.194266,213.779108 82.7781303,213.779108 C48.3619948,213.779108 20.4621787,207.594278 20.4621787,199.964261 C20.4621787,192.3353 48.3619948,186.149941 82.7781303,186.149941" id="Fill-1" fill="#000000" opacity="0.1"></path>
            <mask id="mask-2" fill="white">
                <use xlink:href="#path-1"></use>
            </mask>
            <g id="Clip-5"></g>
            <path d="M0,60.1447871 C0,105.049116 36.5614258,148.152772 81.6624742,148.152772 L81.6624742,148.152772 C126.762471,148.152772 162.807029,134.362222 162.807029,89.4573646 L162.807029,89.4573646 C162.807029,44.5530354 126.762471,1.27612635 81.6624742,1.27612635 L81.6624742,1.27612635 C36.5614258,1.27612635 0,15.2399297 0,60.1447871" id="Fill-4" fill="url(#linearGradient-3)" mask="url(#mask-2)"></path>
            <mask id="mask-5" fill="white">
                <use xlink:href="#path-4"></use>
            </mask>
            <g id="Clip-8"></g>
            <path d="M71.3277484,-10.6503646 C58.6137484,-10.623954 46.0638,-5.46332616 34.0938161,6.56563786 L34.0938161,6.56563786 C2.49863226,38.3174969 -1.97650645,94.7775124 29.9141806,126.826755 L29.9141806,126.826755 C61.8048677,158.875997 96.9949903,174.738193 128.591226,142.986334 L128.591226,142.986334 C160.18641,111.234475 165.149497,55.018493 133.258284,22.9692508 L133.258284,22.9692508 C113.515303,3.12856462 92.3137355,-10.6028256 71.5349161,-10.6503646 L71.5349161,-10.6503646 L71.3277484,-10.6503646 Z" id="Fill-7" fill="url(#linearGradient-6)" mask="url(#mask-5)"></path>
            <mask id="mask-8" fill="white">
                <use xlink:href="#path-7"></use>
            </mask>
            <g id="Clip-11"></g>
            <path d="M8.32772258,74.9738011 C8.32772258,120.298587 22.0502194,156.521757 66.7327258,156.521757 L66.7327258,156.521757 C111.415758,156.521757 154.478781,120.298587 154.478781,74.9738011 L154.478781,74.9738011 C154.478781,29.6495436 140.583819,-7.09285912 95.9013129,-7.09285912 L95.9013129,-7.09285912 C51.2188065,-7.09285912 8.32772258,29.6495436 8.32772258,74.9738011" id="Fill-10" fill="url(#linearGradient-9)" mask="url(#mask-8)"></path>
            <mask id="mask-11" fill="white">
                <use xlink:href="#path-10"></use>
            </mask>
            <g id="Clip-14"></g>
            <path d="M17.9888903,38.2197777 C-4.56137097,77.4727704 -10.6996355,115.737479 27.9965645,138.189644 L27.9965645,138.189644 C66.6932903,160.641808 122.009181,150.910565 144.559442,111.658629 L144.559442,111.658629 C167.109703,72.4061642 173.357335,33.6042643 134.661135,11.1515714 L134.661135,11.1515714 C121.115835,3.29283844 105.514106,-0.557296309 89.9970323,-0.558352732 L89.9970323,-0.558352732 C61.1838903,-0.560465579 32.6457452,12.707683 17.9888903,38.2197777" id="Fill-13" fill="url(#linearGradient-12)" mask="url(#mask-11)"></path>
            <path d="M135.506106,64.3816784 C135.506106,78.9883153 123.978852,90.829236 109.758942,90.829236 C95.5390323,90.829236 84.0112516,78.9883153 84.0112516,64.3816784 C84.0112516,49.7750415 95.5390323,36.3891017 109.758942,36.3891017 C123.978852,36.3891017 135.506106,49.7750415 135.506106,64.3816784" id="Fill-19" fill="#FFFFFF" mask="url(#mask-11)"></path>
            <path d="M135.441695,62.5953194 C135.423292,62.3085005 135.40594,62.0206251 135.378598,61.7348626 C135.361247,61.5499885 135.336008,61.3666991 135.314976,61.1828814 C135.286056,60.9309245 135.258715,60.6789675 135.22296,60.4285952 C135.195092,60.2294594 135.159863,60.03138 135.127263,59.8327724 C135.089405,59.6008875 135.052598,59.3684744 135.008956,59.1376459 C134.969521,58.9290023 134.923776,58.7214151 134.879608,58.5132997 C134.833863,58.2962047 134.788644,58.0791098 134.73764,57.8635994 C134.686637,57.648089 134.630902,57.4341633 134.575166,57.2202376 C134.52206,57.0158197 134.468427,56.8108736 134.411115,56.6080403 C134.348544,56.3872478 134.28124,56.16804 134.213411,55.9488321 C134.153995,55.7570913 134.094579,55.5653505 134.031482,55.3746661 C133.956292,55.1491197 133.877947,54.925158 133.798024,54.7022526 C133.73335,54.5221325 133.667624,54.3425405 133.600321,54.1645332 C133.512511,53.9347611 133.422073,53.7065737 133.329005,53.4799709 C133.26065,53.3125278 133.190718,53.1461411 133.119734,52.9808109 C133.018779,52.7473413 132.915721,52.5154564 132.809508,52.2846279 C132.738524,52.1309183 132.665437,51.9777369 132.591824,51.8250838 C132.477198,51.5879167 132.360995,51.3518061 132.240585,51.1183366 C132.168024,50.9783605 132.093885,50.8394408 132.019221,50.7005211 C131.890398,50.4591284 131.759473,50.2193203 131.623815,49.9821533 C131.552305,49.8574953 131.478692,49.734422 131.405605,49.6108205 C131.259956,49.3646739 131.113256,49.1195837 130.961298,48.8781909 C130.893469,48.770964 130.823011,48.6653216 130.754131,48.5591511 C130.590079,48.3071941 130.425502,48.0557654 130.254615,47.8090905 C130.194673,47.722992 130.132102,47.6390064 130.07216,47.5534361 C129.886024,47.2914431 129.698837,47.0299784 129.504815,46.7748521 C129.46275,46.7193899 129.418582,46.6665687 129.376518,46.6116347 C129.159885,46.3306261 128.940624,46.0512022 128.714527,45.7791732 C140.447898,65.0942887 119.41564,93.9695071 88.2179661,78.8637102 C92.8182468,86.0679889 100.745305,90.8292888 109.758679,90.8292888 C122.536827,90.8292888 133.134982,81.2660168 135.154079,68.7278567 C135.268179,67.9793808 135.355463,67.2446384 135.414353,66.5262705 C135.41856,66.4771469 135.421715,66.4280232 135.425395,66.3788995 C135.449056,66.0767624 135.465882,65.7777946 135.479027,65.4819961 C135.49375,65.1164736 135.506369,64.7509512 135.506369,64.3817312 C135.506369,63.9375052 135.494802,63.4948639 135.473769,63.0532789 C135.465882,62.9000975 135.451685,62.7485008 135.441695,62.5953194" id="Fill-21" fill="#EAEAEA" mask="url(#mask-11)"></path>
            <path d="M78.7957774,64.3816784 C78.7957774,78.9883153 67.2679968,90.829236 53.0486129,90.829236 C38.8287032,90.829236 27.3009226,78.9883153 27.3009226,64.3816784 C27.3009226,49.7750415 38.8287032,36.3891017 53.0486129,36.3891017 C67.2679968,36.3891017 78.7957774,49.7750415 78.7957774,64.3816784" id="Fill-23" fill="#FFFFFF" mask="url(#mask-11)"></path>
            <path d="M78.7313661,62.5953194 C78.7129629,62.3085005 78.6956113,62.0206251 78.6682694,61.7348626 C78.6509177,61.5499885 78.625679,61.3666991 78.6046468,61.1828814 C78.5757274,60.9309245 78.5483855,60.6789675 78.5126306,60.4285952 C78.4842371,60.2294594 78.4495339,60.03138 78.4169339,59.8327724 C78.3790758,59.6008875 78.3422694,59.3684744 78.2986274,59.1376459 C78.2591919,58.9290023 78.2134468,58.7214151 78.169279,58.5132997 C78.1235339,58.2962047 78.0783145,58.0791098 78.0273113,57.8635994 C77.9763081,57.648089 77.9205726,57.4341633 77.8648371,57.2202376 C77.8112048,57.0158197 77.7580984,56.8108736 77.7007855,56.6080403 C77.6382145,56.3872478 77.5709113,56.16804 77.5030823,55.9488321 C77.4436661,55.7570913 77.3837242,55.5653505 77.3206274,55.3746661 C77.2459629,55.1491197 77.1676177,54.925158 77.0876952,54.7022526 C77.023021,54.5221325 76.9572952,54.3425405 76.8894661,54.1645332 C76.8021823,53.9347611 76.7117435,53.7065737 76.6186758,53.4799709 C76.550321,53.3125278 76.4803887,53.1461411 76.408879,52.9808109 C76.30845,52.7473413 76.2053919,52.5154564 76.099179,52.2846279 C76.0276694,52.1309183 75.9551081,51.9777369 75.8814952,51.8250838 C75.7668694,51.5879167 75.6506661,51.3518061 75.5302565,51.1183366 C75.4576952,50.9783605 75.3835565,50.8394408 75.3088919,50.7005211 C75.1795435,50.4591284 75.0491435,50.2193203 74.9134855,49.9821533 C74.8419758,49.8574953 74.7683629,49.734422 74.6952758,49.6108205 C74.5496274,49.3646739 74.4029274,49.1195837 74.2509694,48.8781909 C74.1831403,48.770964 74.1126823,48.6653216 74.0438016,48.5591511 C73.87975,48.3071941 73.7151726,48.0557654 73.5437597,47.8090905 C73.4843435,47.722992 73.4217726,47.6390064 73.3613048,47.5534361 C73.1756952,47.2914431 72.9885081,47.0299784 72.7939597,46.7748521 C72.752421,46.7193899 72.7082532,46.6665687 72.6661887,46.6116347 C72.4495565,46.3306261 72.2302952,46.0512022 72.0041984,45.7791732 C83.7375694,65.0942887 62.7053113,93.9695071 31.5076371,78.8637102 C36.1079177,86.0679889 44.03445,90.8292888 53.04835,90.8292888 C65.8264984,90.8292888 76.4246532,81.2660168 78.44375,68.7278567 C78.55785,67.9793808 78.6451339,67.2446384 78.7040242,66.5262705 C78.7082306,66.4771469 78.7113855,66.4280232 78.7150661,66.3788995 C78.7382016,66.0767624 78.7555532,65.7777946 78.7686984,65.4819961 C78.783421,65.1164736 78.7960403,64.7509512 78.7960403,64.3817312 C78.7960403,63.9375052 78.7844726,63.4948639 78.7634403,63.0532789 C78.7555532,62.9000975 78.7413565,62.7485008 78.7313661,62.5953194" id="Fill-25" fill="#EAEAEA" mask="url(#mask-11)"></path>
            <g id="Group-29" mask="url(#mask-11)">
                <g transform="translate(31.548387, 40.525422)">
                    <mask id="mask-14" fill="white">
                        <use xlink:href="#path-13"></use>
                    </mask>
                    <g id="Clip-28" stroke="none" fill="none"></g>
                    <path d="M7.70043548,0.429436075 C4.95257097,2.39913734 2.55804839,4.91659408 0.649370968,7.7995733 L0.649370968,7.7995733 C0.038383871,10.9741253 1.16203226,14.1882933 3.77686774,15.8833245 L3.77686774,15.8833245 C7.33342258,18.1884401 12.3012419,16.8124488 14.8729613,12.8086044 L14.8729613,12.8086044 C17.4446806,8.80528829 16.6470323,3.69061483 13.0904774,1.38549917 L13.0904774,1.38549917 C11.9221355,0.628043658 10.6013097,0.267803309 9.26313226,0.267803309 L9.26313226,0.267803309 C8.74205806,0.267803309 8.21888065,0.322737321 7.70043548,0.429436075" id="Fill-27" stroke="none" fill="url(#linearGradient-15)" fill-rule="evenodd" mask="url(#mask-14)"></path>
                </g>
            </g>
            <g id="Group-32" mask="url(#mask-11)">
                <g transform="translate(31.548387, 40.525422)">
                    <mask id="mask-17" fill="white">
                        <use xlink:href="#path-16"></use>
                    </mask>
                    <g id="Clip-31" stroke="none" fill="none"></g>
                    <path d="M14.8729613,12.8086044 C14.0321968,14.1175129 12.9569226,15.1839722 11.7154935,15.8558575 L8.43393548,8.63414771 L0.489525806,9.71328412 C0.444832258,7.95698037 0.932254839,6.11352169 1.99490968,4.459691 C4.56662903,0.45637487 9.53392258,-0.920144703 13.0904774,1.38549917 C16.6465065,3.69061483 17.4446806,8.80528829 14.8729613,12.8086044" id="Fill-30" stroke="none" fill="url(#linearGradient-18)" fill-rule="evenodd" mask="url(#mask-17)"></path>
                </g>
            </g>
            <g id="Group-35" mask="url(#mask-11)">
                <g transform="translate(33.651613, 42.110057)">
                    <mask id="mask-20" fill="white">
                        <use xlink:href="#path-19"></use>
                    </mask>
                    <g id="Clip-34" stroke="none" fill="none"></g>
                    <path d="M3.18165484,1.95596776 L5.18392581,6.30684716 L1.21250968,3.73181534 C-0.831825806,6.91429056 -0.197703226,10.9794075 2.62903226,12.8117737 L2.62903226,12.8117737 C5.45576774,14.6446681 9.40457419,13.5502136 11.4489097,10.3677384 L11.4489097,10.3677384 C13.4932452,7.18579135 12.8591226,3.12067446 10.0318613,1.28778001 L10.0318613,1.28778001 C9.28574194,0.803938139 8.17523871,0.445282425 6.97692581,0.445282425 L6.97692581,0.445282425 C5.69816452,0.445282425 4.32002581,0.854118246 3.18165484,1.95596776" id="Fill-33" stroke="none" fill="url(#linearGradient-21)" fill-rule="evenodd" mask="url(#mask-20)"></path>
                </g>
            </g>
            <g id="Group-38" mask="url(#mask-11)">
                <g transform="translate(87.809677, 40.525422)">
                    <mask id="mask-23" fill="white">
                        <use xlink:href="#path-22"></use>
                    </mask>
                    <g id="Clip-37" stroke="none" fill="none"></g>
                    <path d="M8.28776129,0.331188708 C5.19601935,2.51745675 2.54648065,5.393041 0.522125806,8.7059845 L0.522125806,8.7059845 C0.266058065,11.5720609 1.41073871,14.3493978 3.77686774,15.8833245 L3.77686774,15.8833245 C7.33342258,18.1884401 12.3012419,16.8124488 14.8729613,12.8086044 L14.8729613,12.8086044 C17.4446806,8.80528829 16.6470323,3.69061483 13.0904774,1.38549917 L13.0904774,1.38549917 C11.9221355,0.628043658 10.6013097,0.267803309 9.26313226,0.267803309 L9.26313226,0.267803309 C8.93870968,0.267803309 8.61270968,0.289459987 8.28776129,0.331188708" id="Fill-36" stroke="none" fill="url(#linearGradient-24)" fill-rule="evenodd" mask="url(#mask-23)"></path>
                </g>
            </g>
            <g id="Group-41" mask="url(#mask-11)">
                <g transform="translate(87.809677, 40.525422)">
                    <mask id="mask-26" fill="white">
                        <use xlink:href="#path-25"></use>
                    </mask>
                    <g id="Clip-40" stroke="none" fill="none"></g>
                    <path d="M14.8729613,12.8086044 C14.0321968,14.1175129 12.9569226,15.1839722 11.7154935,15.8558575 L8.43393548,8.63414771 L0.489525806,9.71328412 C0.444832258,7.95698037 0.932254839,6.11352169 1.99490968,4.459691 C4.56662903,0.45637487 9.53392258,-0.920144703 13.0904774,1.38549917 C16.6465065,3.69061483 17.4446806,8.80528829 14.8729613,12.8086044" id="Fill-39" stroke="none" fill="url(#linearGradient-27)" fill-rule="evenodd" mask="url(#mask-26)"></path>
                </g>
            </g>
            <g id="Group-44" mask="url(#mask-11)">
                <g transform="translate(89.912903, 42.110057)">
                    <mask id="mask-29" fill="white">
                        <use xlink:href="#path-28"></use>
                    </mask>
                    <g id="Clip-43" stroke="none" fill="none"></g>
                    <path d="M3.18165484,1.95596776 L5.18392581,6.30684716 L1.21250968,3.73181534 C-0.831825806,6.91429056 -0.197703226,10.9794075 2.62903226,12.8117737 L2.62903226,12.8117737 C5.45576774,14.6446681 9.40457419,13.5502136 11.4489097,10.3677384 L11.4489097,10.3677384 C13.4932452,7.18579135 12.8585968,3.12067446 10.0318613,1.28778001 L10.0318613,1.28778001 C9.28574194,0.803938139 8.1747129,0.445282425 6.97692581,0.445282425 L6.97692581,0.445282425 C5.69763871,0.445282425 4.3195,0.854118246 3.18165484,1.95596776" id="Fill-42" stroke="none" fill="url(#linearGradient-30)" fill-rule="evenodd" mask="url(#mask-29)"></path>
                </g>
            </g>
            <mask id="mask-32" fill="white">
                <use xlink:href="#path-31"></use>
            </mask>
            <g id="Clip-47"></g>
            <path d="M36.7302097,22.2096824 C34.7768387,23.466298 33.2877548,25.3757831 32.3108065,27.4896861 L32.3108065,27.4896861 C31.6062258,29.0125203 31.1493,30.6890641 31.2781226,32.3629669 L31.2781226,32.3629669 C31.3075677,32.7459203 31.4064194,33.1167249 31.5452323,33.4743242 L31.5452323,33.4743242 C31.8354774,34.2212155 32.4364742,34.8133407 32.8045387,34.8931007 L32.8045387,34.8931007 C34.248929,35.2073866 34.8325742,33.6518033 35.4256839,32.7015505 L35.4256839,32.7015505 C36.5609,30.8829178 38.1020387,29.3114881 39.937629,28.2117515 L39.937629,28.2117515 C41.1916774,27.4595781 42.5698161,26.9324228 43.9789774,26.5473566 L43.9789774,26.5473566 C44.7766258,26.3292051 45.7488419,26.1548953 46.1242677,25.415399 L46.1242677,25.415399 C47.0176129,23.6543413 45.8271871,22.3512432 45.6478871,22.1346764 L45.6478871,22.1346764 C45.0889548,21.4601501 44.2366226,21.0962123 43.3842903,20.9039432 L43.3842903,20.9039432 C42.8195742,20.776116 42.2438161,20.7153717 41.6680581,20.7153717 L41.6680581,20.7153717 C39.935,20.7153717 38.1966839,21.2662964 36.7302097,22.2096824" id="Fill-46" fill="url(#linearGradient-33)" mask="url(#mask-32)"></path>
            <mask id="mask-35" fill="white">
                <use xlink:href="#path-34"></use>
            </mask>
            <g id="Clip-50"></g>
            <path d="M117.600294,30.6647664 C117.134955,31.407432 117.053981,32.3339152 117.134955,33.2075773 L117.134955,33.2075773 C117.35001,35.5280111 118.634029,37.6820582 120.428081,39.1610509 L120.428081,39.1610509 C122.221606,40.6389871 124.488884,41.4709204 126.791916,41.751929 L126.791916,41.751929 C128.451361,41.9537059 130.180213,41.8723613 131.725032,41.2321688 L131.725032,41.2321688 C132.078374,41.0858541 132.399116,40.8766823 132.694619,40.633705 L132.694619,40.633705 C133.311916,40.1255654 133.686816,39.3681098 133.648958,38.9914949 L133.648958,38.9914949 C133.499629,37.5151434 131.847019,37.4374962 130.763858,37.1644108 L130.763858,37.1644108 C128.691655,36.6425377 126.727242,35.6553101 125.1188,34.2418157 L125.1188,34.2418157 C124.019339,33.2762448 123.093919,32.1221024 122.293642,30.8945385 L122.293642,30.8945385 C121.840923,30.1999401 121.375584,29.3252216 120.559006,29.1958098 L120.559006,29.1958098 C120.382861,29.1672864 120.215129,29.1546093 120.056335,29.1546093 L120.056335,29.1546093 C118.464719,29.1546093 117.737003,30.4481996 117.600294,30.6647664" id="Fill-49" fill="url(#linearGradient-36)" mask="url(#mask-35)"></path>
            <mask id="mask-38" fill="white">
                <use xlink:href="#path-37"></use>
            </mask>
            <g id="Clip-53"></g>
            <path d="M103.359877,104.432165 C101.198813,107.084316 103.25051,112.363263 106.601474,115.12 L106.601474,115.12 C109.952965,117.876736 113.335477,117.068044 115.497594,114.416422 L115.497594,114.416422 C117.658658,111.764271 117.781171,108.273848 114.429681,105.516584 L114.429681,105.516584 C112.444235,103.883353 109.685329,102.873941 107.316045,102.873941 L107.316045,102.873941 C105.686571,102.873941 104.241129,103.351972 103.359877,104.432165" id="Fill-52" fill="url(#linearGradient-39)" mask="url(#mask-38)"></path>
            <mask id="mask-41" fill="white">
                <use xlink:href="#path-40"></use>
            </mask>
            <g id="Clip-56"></g>
            <path d="M114.676442,101.604595 C114.676442,105.242389 110.373767,108.191395 105.066277,108.191395 C99.7587868,108.191395 95.4561126,105.242389 95.4561126,101.604595 C95.4561126,97.9668016 99.7587868,95.0183241 105.066277,95.0183241 C110.373767,95.0183241 114.676442,97.9668016 114.676442,101.604595" id="Fill-55" fill="#FFFFFF" mask="url(#mask-41)"></path>
        </g>
    </g>
</svg>