<svg xmlns="http://www.w3.org/2000/svg" viewBox="0 0 69.28 68.44"><defs><style>.cls-1{fill:#ffd000;}.cls-2{fill:#fff;}</style></defs><title>Ресурс 2</title><g id="Слой_2" data-name="Слой 2"><g id="header"><path class="cls-1" d="M8.51,12.85c-14.22,15.41-9.3,38,5,48.66s27.66,10,44.4-9.1C71.77,36.63,73.76,18.62,59.43,7.92S24.08-4,8.51,12.85Z"/><path class="cls-2" d="M36.44,36.51v3.2A2.37,2.37,0,0,1,34,42.13a2.42,2.42,0,0,1-2.41-2.42V34.59c0-.05.05-.05.05-.1s-.05,0-.05-.09A2.49,2.49,0,0,1,34,32a5.51,5.51,0,1,0,0-11,5.44,5.44,0,0,0-4.72,2.7,2.42,2.42,0,1,1-4.19-2.41A10.35,10.35,0,1,1,36.44,36.51Z"/><circle class="cls-2" cx="34.02" cy="48.25" r="2.88"/></g></g></svg>