<svg xmlns="http://www.w3.org/2000/svg" xmlns:xlink="http://www.w3.org/1999/xlink" viewBox="0 0 319.69 188.43"><defs><style>.cls-1{fill:#a175ff;}.cls-2{fill:#fdd405;}.cls-3{fill:#f73e63;}.cls-4{fill:#03a2ff;}.cls-5{fill:#fff;}.cls-6{fill:none;stroke:#fff;stroke-linecap:round;stroke-miterlimit:10;stroke-width:6px;}</style><symbol id="V" data-name="V" viewBox="0 0 319.69 188.43"><path class="cls-1" d="M75.92,148.19c15.06.41,27.13-8.74,25.64-24S90.39,94,72.16,94c-15,.06-25.43,9-23.94,24.24S59.43,147.74,75.92,148.19Z"/><path class="cls-2" d="M91,188.43H219.24c6.85-14.14,9.25-30.71,4.94-49.27-9.26-39.84-38-56.6-79.32-48.49-49.64,9.75-64,47.87-55.24,91.82Q90.23,185.52,91,188.43Z"/><path class="cls-2" d="M107.7,65.29c4.9-3.37,5.06-11.2,3.21-14-3-4.55-9.54-5.2-15.37-1-4.81,3.5-6.33,8.52-2.77,12.63S102.33,69,107.7,65.29Z"/><path class="cls-3" d="M101.35,11.81c2.78-1.79,2.28-6.81.92-8.75a6.79,6.79,0,0,0-9.61-1.8c-2.71,1.88-3.27,5-.74,7.9S98.31,13.77,101.35,11.81Z"/><path class="cls-3" d="M281.72,88.23a5.34,5.34,0,0,0,1.6-7.33,6.79,6.79,0,0,0-9.61-1.8c-2.71,1.88-3.27,5-.74,7.9S278.68,90.19,281.72,88.23Z"/><circle class="cls-4" cx="305.31" cy="141.17" r="3.1"/><circle class="cls-4" cx="32.69" cy="9.43" r="3.1"/><circle class="cls-4" cx="316.59" cy="107.46" r="3.1"/><circle class="cls-4" cx="5.19" cy="135.98" r="5.19"/><path class="cls-4" d="M224.81,100.77c3.35,9,14.14,11.34,22,7.37s10.61-9.74,6.25-20.54c-3.6-8.92-10.86-13.28-18.72-9.31S221.14,90.9,224.81,100.77Z"/><path class="cls-1" d="M173.73,27.63c2,5.52,6.94,8.67,12.11,6.06s9.07-8.15,6.45-14.76c-2.16-5.46-6.78-8-11.95-5.4S171.54,21.58,173.73,27.63Z"/><circle class="cls-5" cx="189.93" cy="125.88" r="7.5"/><circle class="cls-5" cx="121.02" cy="127.88" r="5"/><path class="cls-5" d="M169.69,158.36a14,14,0,0,1-28,0Z"/><path class="cls-6" d="M181.42,106.35s7.46-3.75,15.23-1.75"/></symbol></defs><title>Asset 5</title><g id="Layer_2" data-name="Layer 2"><g id="Layer_1-2" data-name="Layer 1"><use id="V-3" data-name="V" width="319.69" height="188.43" xlink:href="#V"/></g></g></svg>