<svg xmlns="http://www.w3.org/2000/svg" xmlns:xlink="http://www.w3.org/1999/xlink" viewBox="0 0 125.09 95.5"><defs><style>.cls-1{fill:#01d8ff;}.cls-2{fill:#fff;}.cls-3{fill:none;stroke:#fff;stroke-linecap:round;stroke-miterlimit:10;stroke-width:5px;}</style><symbol id="ok" data-name="ok" viewBox="0 0 125.09 95.5"><path class="cls-1" d="M118.58,95.5a76.67,76.67,0,0,0,5.9-22.56C128.75,33.81,110.61,0,75.54,0S4.26,21.42.36,68.94A94,94,0,0,0,1.73,95.5Z"/><path class="cls-2" d="M57.1,36.9a17.29,17.29,0,0,1,0,23.81,15.41,15.41,0,0,1-11.25,5,15.88,15.88,0,0,1-11.53-5,17.54,17.54,0,0,1,0-23.81,15.7,15.7,0,0,1,11.53-5A15.24,15.24,0,0,1,57.1,36.9ZM56.49,48.8a12.19,12.19,0,0,0-3.2-8.23,10.15,10.15,0,0,0-15.06,0A12,12,0,0,0,35,48.8,11.77,11.77,0,0,0,38.23,57a10.06,10.06,0,0,0,15.06,0A12,12,0,0,0,56.49,48.8Z"/><path class="cls-2" d="M64.85,63.15V35.39a2.58,2.58,0,0,1,2.59-2.59,2.62,2.62,0,0,1,2.63,2.59V51.67L79.72,42a2.64,2.64,0,0,1,3.67,0,2.56,2.56,0,0,1,0,3.67l-7.06,7.06,7.25,8.71a2.61,2.61,0,0,1-.38,3.67,2.54,2.54,0,0,1-3.62-.33l-6.92-8.38L70.07,59v4.14a2.62,2.62,0,0,1-2.63,2.59A2.58,2.58,0,0,1,64.85,63.15Z"/><path class="cls-2" d="M89.79,54.4v-19a2.61,2.61,0,0,1,2.59-2.59,2.57,2.57,0,0,1,2.54,2.59v19A2.54,2.54,0,0,1,92.38,57,2.58,2.58,0,0,1,89.79,54.4Zm2.59,11.34a2.58,2.58,0,0,1-2.59-2.59v-.94a2.61,2.61,0,0,1,2.59-2.59,2.57,2.57,0,0,1,2.54,2.59v.94A2.54,2.54,0,0,1,92.38,65.74Z"/><line class="cls-3" x1="32.21" y1="77.17" x2="93.21" y2="77.17"/></symbol></defs><title>Asset 2</title><g id="Layer_2" data-name="Layer 2"><g id="Layer_1-2" data-name="Layer 1"><use id="ok-3" data-name="ok" width="125.09" height="95.5" xlink:href="#ok"/></g></g></svg>